<svg xmlns="http://www.w3.org/2000/svg" viewBox="0 0 24 24">
    <path fill="#000000" d="M 23.921875 10.203125 C 23.601562 7.105469 21.953125 4.339844 19.285156 2.417969 C 16.417969 0.351562 12.707031 -0.441406 9.355469 0.304688 C 6.171875 1.011719 3.375 3.0625 1.683594 5.925781 C -0.0078125 8.792969 -0.449219 12.230469 0.472656 15.363281 C 0.96875 17.054688 1.847656 18.640625 3.015625 19.960938 C 4.195312 21.289062 5.671875 22.351562 7.292969 23.03125 C 8.789062 23.660156 10.375 23.96875 11.960938 23.96875 C 14.125 23.96875 16.277344 23.390625 18.171875 22.253906 L 16.832031 20.027344 C 14.261719 21.578125 11.074219 21.804688 8.296875 20.640625 C 5.746094 19.566406 3.75 17.320312 2.960938 14.632812 C 2.242188 12.1875 2.589844 9.496094 3.917969 7.246094 C 5.246094 4.996094 7.433594 3.390625 9.917969 2.835938 C 12.554688 2.253906 15.492188 2.878906 17.769531 4.519531 C 19.828125 6.003906 21.09375 8.121094 21.339844 10.472656 C 21.5 11.992188 21.359375 13.191406 20.925781 14.039062 C 20.007812 15.824219 18.675781 15.835938 18.144531 15.757812 C 18.128906 15.753906 18.117188 15.75 18.105469 15.75 C 17.953125 15.515625 17.972656 14.640625 17.980469 14.261719 C 17.980469 14.113281 17.984375 13.972656 17.984375 13.839844 L 17.984375 6.734375 L 15.996094 6.734375 C 15.746094 6.527344 15.476562 6.339844 15.195312 6.171875 C 14.113281 5.527344 12.859375 5.183594 11.566406 5.183594 C 9.722656 5.183594 7.988281 5.855469 6.691406 7.074219 C 4.628906 9.011719 3.988281 12.191406 5.136719 14.808594 C 5.679688 16.054688 6.597656 17.085938 7.789062 17.792969 C 8.90625 18.453125 10.210938 18.804688 11.558594 18.804688 C 13.105469 18.804688 14.527344 18.378906 15.667969 17.570312 C 15.792969 17.484375 15.910156 17.394531 16.027344 17.300781 C 16.433594 17.859375 17.027344 18.214844 17.765625 18.324219 C 18.789062 18.476562 19.816406 18.308594 20.734375 17.835938 C 21.777344 17.304688 22.617188 16.421875 23.234375 15.222656 C 23.910156 13.902344 24.136719 12.261719 23.921875 10.203125 Z M 15.359375 14.234375 C 15.304688 14.3125 15.21875 14.417969 15.171875 14.472656 C 15.132812 14.523438 15.101562 14.566406 15.070312 14.605469 C 14.824219 14.921875 14.523438 15.207031 14.175781 15.453125 C 13.460938 15.957031 12.578125 16.210938 11.558594 16.210938 C 9.722656 16.210938 8.171875 15.277344 7.511719 13.769531 C 6.796875 12.140625 7.191406 10.164062 8.464844 8.96875 C 9.269531 8.210938 10.402344 7.78125 11.566406 7.78125 C 12.390625 7.78125 13.183594 7.992188 13.863281 8.398438 C 14.296875 8.65625 14.679688 8.992188 15 9.394531 C 15.03125 9.433594 15.066406 9.480469 15.109375 9.527344 C 15.167969 9.601562 15.285156 9.746094 15.359375 9.851562 Z M 15.359375 14.234375 "/>
</svg>
