<svg width="16" height="16" viewBox="0 0 16 16" fill="none" xmlns="http://www.w3.org/2000/svg">
    <path d="M12.5 4.5C12.7761 4.22386 12.7761 3.77614 12.5 3.5C12.2239 3.22386 11.7761 3.22386 11.5 3.5L8 7L4.5 3.5C4.22386 3.22386 3.77614 3.22386 3.5 3.5C3.22386 3.77614 3.22386 4.22386 3.5 4.5L7 8L3.5 11.5C3.22386 11.7761 3.22386 12.2239 3.5 12.5C3.77614 12.7761 4.22386 12.7761 4.5 12.5L8 9L11.5 12.5C11.7761 12.7761 12.2239 12.7761 12.5 12.5C12.7761 12.2239 12.7761 11.7761 12.5 11.5L9 8L12.5 4.5Z" fill="currentColor"/>
</svg>