<svg width="16" height="16" viewBox="0 0 16 16" fill="none" xmlns="http://www.w3.org/2000/svg">
    <path d="M8 12.5C7.86111 12.5 7.72222 12.4583 7.61111 12.375L2.61111 8.375C2.36111 8.16667 2.33333 7.79167 2.54167 7.54167C2.75 7.29167 3.125 7.26389 3.375 7.47222L8 11.1944L12.625 7.47222C12.875 7.26389 13.25 7.29167 13.4583 7.54167C13.6667 7.79167 13.6389 8.16667 13.3889 8.375L8.38889 12.375C8.27778 12.4583 8.13889 12.5 8 12.5Z" fill="currentColor"/>
    <path d="M8 8.5C7.86111 8.5 7.72222 8.45833 7.61111 8.375L2.61111 4.375C2.36111 4.16667 2.33333 3.79167 2.54167 3.54167C2.75 3.29167 3.125 3.26389 3.375 3.47222L8 7.19444L12.625 3.47222C12.875 3.26389 13.25 3.29167 13.4583 3.54167C13.6667 3.79167 13.6389 4.16667 13.3889 4.375L8.38889 8.375C8.27778 8.45833 8.13889 8.5 8 8.5Z" fill="currentColor"/>
</svg>