<?xml version="1.0" encoding="utf-8"?>
<svg fill="#FFFFFF" width="16px" height="16px" viewBox="0 0 24 24" xmlns="http://www.w3.org/2000/svg">
    <g>
        <g>
            <rect width="24" height="24" opacity="0"/>
            <path d="M13 19V7.14l4.36 3.63a1 1 0 0 0 1.28-1.54l-6-5c-.05-.04-.1-.07-.15-.09-.05 0-.08-.05-.13-.07A1 1 0 0 0 12 4a1 1 0 0 0-.36.07c-.05 0-.08.05-.13.07-.05.02-.1.05-.15.09l-6 5a1 1 0 0 0-.23.64 1 1 0 0 0 .23.64 1 1 0 0 0 1.41.13L11 7.14V19a1 1 0 0 0 2 0z"/>
        </g>
    </g>
</svg>