<svg width="13" height="13" viewBox="-55.5 0 356 356" fill="none" xmlns="http://www.w3.org/2000/svg">
    <mask id="path-1-inside-1_460_2743" fill="white">
      <path fill-rule="evenodd" clip-rule="evenodd" d="M121.403 121.347C133.414 121.832 144.086 121.306 153.496 120.131C149.747 152.159 140.739 183.824 126.305 213.775C123.193 212.039 120.173 210.042 117.277 207.779C113.042 204.471 109.294 200.771 106.043 196.771C110.062 204.572 113.134 212.774 115.238 221.194C105.707 233.068 94.2564 242.521 81.6786 249.458C46.0698 236.677 21.27 206.757 21.27 163.506C21.27 138.887 29.3045 116.222 42.7936 98.1943C54.4194 106.66 78.9257 119.63 121.403 121.347ZM129.055 256.359C182.483 255.172 218.979 236.044 245 163.506C216.125 163.506 209.141 142.586 201.367 119.298C200.046 115.343 198.703 111.319 197.226 107.318C190.038 111.055 179.917 115.136 166.517 117.962C162.658 152.405 152.724 186.452 136.508 218.425C144.928 221.466 153.762 222.806 162.511 222.506C149.758 228.357 137.944 236.654 127.82 247.306C128.307 250.313 128.718 253.332 129.055 256.359ZM87.1463 159.036C87.1463 152.725 92.2623 147.609 98.5733 147.609C104.884 147.609 110 152.725 110 159.036V171.291C110 177.602 104.884 182.718 98.5733 182.718C92.2623 182.718 87.1463 177.602 87.1463 171.291V159.036ZM52.829 147.609C47.0668 147.609 42.3957 152.28 42.3957 158.042V172.285C42.3957 178.047 47.0668 182.718 52.829 182.718C58.5912 182.718 63.2624 178.047 63.2624 172.285V158.042C63.2624 152.28 58.5912 147.609 52.829 147.609Z"/>
    </mask>
    <path fill-rule="evenodd" clip-rule="evenodd" d="M121.403 121.347C133.414 121.832 144.086 121.306 153.496 120.131C149.747 152.159 140.739 183.824 126.305 213.775C123.193 212.039 120.173 210.042 117.277 207.779C113.042 204.471 109.294 200.771 106.043 196.771C110.062 204.572 113.134 212.774 115.238 221.194C105.707 233.068 94.2564 242.521 81.6786 249.458C46.0698 236.677 21.27 206.757 21.27 163.506C21.27 138.887 29.3045 116.222 42.7936 98.1943C54.4194 106.66 78.9257 119.63 121.403 121.347ZM129.055 256.359C182.483 255.172 218.979 236.044 245 163.506C216.125 163.506 209.141 142.586 201.367 119.298C200.046 115.343 198.703 111.319 197.226 107.318C190.038 111.055 179.917 115.136 166.517 117.962C162.658 152.405 152.724 186.452 136.508 218.425C144.928 221.466 153.762 222.806 162.511 222.506C149.758 228.357 137.944 236.654 127.82 247.306C128.307 250.313 128.718 253.332 129.055 256.359ZM87.1463 159.036C87.1463 152.725 92.2623 147.609 98.5733 147.609C104.884 147.609 110 152.725 110 159.036V171.291C110 177.602 104.884 182.718 98.5733 182.718C92.2623 182.718 87.1463 177.602 87.1463 171.291V159.036ZM52.829 147.609C47.0668 147.609 42.3957 152.28 42.3957 158.042V172.285C42.3957 178.047 47.0668 182.718 52.829 182.718C58.5912 182.718 63.2624 178.047 63.2624 172.285V158.042C63.2624 152.28 58.5912 147.609 52.829 147.609Z" fill="white"/>
    <path d="M153.496 120.131L157.557 120.606L158.163 115.428L152.989 116.074L153.496 120.131ZM121.403 121.347L121.568 117.261L121.568 117.261L121.403 121.347ZM126.305 213.775L124.314 217.346L128.105 219.46L129.989 215.55L126.305 213.775ZM117.277 207.779L114.76 211.001L114.76 211.001L117.277 207.779ZM106.043 196.771L109.217 194.192L102.409 198.643L106.043 196.771ZM115.238 221.194L118.426 223.753L119.696 222.171L119.204 220.203L115.238 221.194ZM81.6786 249.458L80.2974 253.306L82.0358 253.93L83.6531 253.038L81.6786 249.458ZM21.27 163.506L17.1814 163.506L21.27 163.506ZM42.7936 98.1943L45.2003 94.8891L41.9378 92.5134L39.5199 95.7448L42.7936 98.1943ZM129.055 256.359L124.992 256.812L125.406 260.53L129.146 260.447L129.055 256.359ZM245 163.506L248.848 164.886L250.81 159.417H245V163.506ZM201.367 119.298L197.488 120.593L197.488 120.593L201.367 119.298ZM197.226 107.318L201.061 105.902L199.455 101.55L195.339 103.69L197.226 107.318ZM166.517 117.962L165.674 113.961L162.783 114.571L162.454 117.506L166.517 117.962ZM136.508 218.425L132.861 216.576L130.769 220.7L135.119 222.271L136.508 218.425ZM162.511 222.506L164.216 226.222L162.371 218.42L162.511 222.506ZM127.82 247.306L124.857 244.489L123.461 245.958L123.784 247.959L127.82 247.306ZM152.989 116.074C143.808 117.22 133.362 117.738 121.568 117.261L121.237 125.432C133.467 125.926 144.363 125.391 154.002 124.188L152.989 116.074ZM129.989 215.55C144.623 185.182 153.756 153.077 157.557 120.606L149.435 119.656C145.738 151.242 136.855 182.466 122.622 212L129.989 215.55ZM128.297 210.204C125.367 208.57 122.524 206.69 119.794 204.557L114.76 211.001C117.823 213.394 121.018 215.508 124.314 217.346L128.297 210.204ZM119.794 204.557C115.803 201.44 112.275 197.956 109.217 194.192L102.87 199.349C106.313 203.586 110.281 207.503 114.76 211.001L119.794 204.557ZM102.409 198.643C106.282 206.161 109.243 214.067 111.271 222.185L119.204 220.203C117.026 211.48 113.843 202.983 109.678 194.898L102.409 198.643ZM112.049 218.635C102.859 230.084 91.823 239.194 79.7042 245.877L83.6531 253.038C96.6899 245.848 108.556 236.051 118.426 223.753L112.049 218.635ZM17.1814 163.506C17.1813 208.621 43.198 239.99 80.2974 253.306L83.0599 245.609C48.9417 233.364 25.3587 204.894 25.3587 163.506L17.1814 163.506ZM39.5199 95.7448C25.5119 114.466 17.1814 137.987 17.1814 163.506L25.3587 163.506C25.3587 139.787 33.0971 117.978 46.0673 100.644L39.5199 95.7448ZM121.568 117.261C79.9105 115.577 56.182 102.885 45.2003 94.8891L40.3869 101.5C52.6567 110.434 77.941 123.682 121.237 125.432L121.568 117.261ZM129.146 260.447C156.313 259.843 179.738 254.667 199.726 239.984C219.678 225.327 235.685 201.58 248.848 164.886L241.151 162.125C228.293 197.97 213.042 220.056 194.884 233.394C176.762 246.707 155.225 251.688 128.964 252.272L129.146 260.447ZM245 159.417C231.782 159.417 224.025 154.737 218.499 147.626C212.686 140.147 209.195 129.835 205.245 118.004L197.488 120.593C201.313 132.049 205.201 143.841 212.042 152.644C219.169 161.814 229.342 167.594 245 167.594V159.417ZM205.245 118.004C203.928 114.058 202.564 109.973 201.061 105.902L193.39 108.734C194.841 112.665 196.165 116.628 197.488 120.593L205.245 118.004ZM195.339 103.69C188.469 107.263 178.698 111.215 165.674 113.961L167.361 121.962C181.137 119.058 191.608 114.848 199.112 110.945L195.339 103.69ZM162.454 117.506C158.649 151.474 148.852 185.048 132.861 216.576L140.154 220.275C156.596 187.857 166.668 153.337 170.581 118.417L162.454 117.506ZM162.371 218.42C154.132 218.702 145.818 217.44 137.896 214.58L135.119 222.271C144.039 225.492 153.391 226.91 162.651 226.592L162.371 218.42ZM130.784 250.123C140.542 239.856 151.926 231.861 164.216 226.222L160.806 218.79C147.59 224.853 135.346 233.453 124.857 244.489L130.784 250.123ZM133.119 255.907C132.775 252.813 132.354 249.727 131.857 246.653L123.784 247.959C124.26 250.899 124.662 253.851 124.992 256.812L133.119 255.907ZM98.5733 143.52C90.0042 143.52 83.0576 150.467 83.0576 159.036H91.2349C91.2349 154.983 94.5204 151.697 98.5733 151.697V143.52ZM114.089 159.036C114.089 150.467 107.142 143.52 98.5733 143.52V151.697C102.626 151.697 105.912 154.983 105.912 159.036H114.089ZM114.089 171.291V159.036H105.912V171.291H114.089ZM98.5733 186.807C107.142 186.807 114.089 179.86 114.089 171.291H105.912C105.912 175.344 102.626 178.629 98.5733 178.629V186.807ZM83.0576 171.291C83.0576 179.86 90.0042 186.807 98.5733 186.807V178.629C94.5204 178.629 91.2349 175.344 91.2349 171.291H83.0576ZM83.0576 159.036V171.291H91.2349V159.036H83.0576ZM46.4843 158.042C46.4843 154.538 49.3249 151.697 52.829 151.697V143.52C44.8087 143.52 38.307 150.022 38.307 158.042H46.4843ZM46.4843 172.285V158.042H38.307V172.285H46.4843ZM52.829 178.629C49.3249 178.629 46.4843 175.789 46.4843 172.285H38.307C38.307 180.305 44.8087 186.807 52.829 186.807V178.629ZM59.1738 172.285C59.1738 175.789 56.3331 178.629 52.829 178.629V186.807C60.8493 186.807 67.3511 180.305 67.3511 172.285H59.1738ZM59.1738 158.042V172.285H67.3511V158.042H59.1738ZM52.829 151.697C56.3331 151.697 59.1738 154.538 59.1738 158.042H67.3511C67.3511 150.022 60.8493 143.52 52.829 143.52V151.697Z" fill="white" mask="url(#path-1-inside-1_460_2743)"/>
    <path fill-rule="evenodd" clip-rule="evenodd" d="M99.8408 332.862C102.316 327.39 104.432 321.675 106.152 315.739C110.393 301.104 111.88 286.324 110.918 271.954C110.274 280.601 108.729 289.313 106.219 297.974C102.712 310.076 97.5604 321.254 91.0778 331.337C93.9845 331.962 96.9079 332.47 99.8408 332.862Z" fill="white"/>
    <path d="M165.798 158.877C160.283 158.877 154.994 161.068 151.094 164.967C147.194 168.867 145.004 174.156 145.004 179.671C145.004 185.186 147.194 190.475 151.094 194.375C154.994 198.274 160.283 200.465 165.798 200.465L165.798 179.671V158.877Z" fill="white"/>
    <mask id="path-5-outside-2_460_2743" maskUnits="userSpaceOnUse" x="55.131" y="38.1046" width="178.263" height="188.092" fill="black">
      <rect fill="white" x="55.131" y="38.1046" width="178.263" height="188.092"/>
      <path fill-rule="evenodd" clip-rule="evenodd" d="M166.745 53.9083C172.554 109.438 162.767 166.652 136.507 218.426C133.024 217.168 129.612 215.619 126.305 213.775C151.384 161.734 160.084 104.518 153.274 49.2108C157.639 51.2599 162.155 52.8226 166.745 53.9083Z"/>
    </mask>
    <path d="M136.507 218.426L139.272 219.828L138.032 222.272L135.455 221.341L136.507 218.426ZM166.745 53.9083L167.459 50.8921L169.599 51.3983L169.828 53.5858L166.745 53.9083ZM126.305 213.775L124.796 216.482L122.246 215.06L123.513 212.43L126.305 213.775ZM153.274 49.2108L150.198 49.5895L149.512 44.0211L154.591 46.4051L153.274 49.2108ZM133.743 217.024C159.725 165.797 169.412 109.184 163.663 54.2308L169.828 53.5858C175.697 109.692 165.809 167.506 139.272 219.828L133.743 217.024ZM127.815 211.068C130.974 212.83 134.234 214.31 137.56 215.511L135.455 221.341C131.815 220.027 128.25 218.409 124.796 216.482L127.815 211.068ZM156.35 48.832C163.23 104.713 154.442 162.529 129.097 215.121L123.513 212.43C148.327 160.939 156.937 104.323 150.198 49.5895L156.35 48.832ZM166.032 56.9246C161.236 55.7903 156.518 54.1574 151.957 52.0165L154.591 46.4051C158.76 48.3623 163.073 49.855 167.459 50.8921L166.032 56.9246Z" fill="white" mask="url(#path-5-outside-2_460_2743)"/>
    <path fill-rule="evenodd" clip-rule="evenodd" d="M208.815 50.0754L204.485 48.2956L203.184 52.7926L207.218 53.9601C203.184 52.7926 203.183 52.7937 203.183 52.7948L203.182 52.7976L203.18 52.8047L203.174 52.8257L203.155 52.8939C203.139 52.9509 203.117 53.0309 203.089 53.1328C203.033 53.3366 202.956 53.6283 202.862 53.9999C202.673 54.7427 202.418 55.8067 202.14 57.1269C201.585 59.7617 200.935 63.4456 200.551 67.6515C199.8 75.8967 200.003 86.8626 204.672 95.7628C204.986 96.3601 205.062 96.9272 205.017 97.2973C204.98 97.6073 204.883 97.7033 204.791 97.7705C199.391 101.721 187.253 109.088 166.977 113.566C166.835 115.032 166.682 116.497 166.518 117.962C188.197 113.39 201.294 105.533 207.271 101.16C209.565 99.4816 209.712 96.3293 208.391 93.8116C202.274 82.1503 204.642 65.6689 206.232 58.0792C206.77 55.5103 207.218 53.9601 207.218 53.9601C207.866 54.2265 208.518 54.413 209.172 54.5252C221.438 56.6319 234.412 32.6121 239.775 21.3446C241.194 18.3625 239.623 14.963 236.41 14.1987C204.942 6.71288 57.706 -22.0768 34.8909 88.2345C34.5586 89.841 34.9908 91.57 36.1719 92.7085C42.6976 98.999 67.6744 119.175 121.403 121.347C133.414 121.832 144.086 121.306 153.496 120.131C153.663 118.7 153.82 117.269 153.967 115.836C144.545 117.071 133.777 117.643 121.572 117.15C68.9496 115.023 44.9299 95.3173 39.0867 89.6846C39.0833 89.6813 39.0436 89.6421 39.0123 89.5289C38.9794 89.4097 38.9696 89.251 39.0039 89.0851C44.4984 62.5191 57.3994 44.5496 74.0443 32.4759C90.7894 20.3295 111.566 13.9815 132.946 11.2078C175.766 5.65244 219.839 14.5738 235.438 18.2847C235.779 18.3658 235.943 18.5443 236.026 18.7205C236.112 18.9042 236.152 19.1842 235.983 19.5394C233.194 25.398 228.423 34.5184 222.897 41.4632C220.12 44.9535 217.36 47.6265 214.793 49.1323C212.304 50.5919 210.426 50.7375 208.815 50.0754Z" fill="white"/>
    <mask id="path-8-inside-3_460_2743" fill="white">
      <path fill-rule="evenodd" clip-rule="evenodd" d="M127.821 247.306C137.944 236.654 149.758 228.357 162.511 222.506C146.736 223.047 130.689 218.257 117.277 207.779C113.042 204.471 109.294 200.771 106.044 196.771C110.062 204.572 113.134 212.774 115.238 221.194C89.0418 253.831 48.3353 268.185 9.59986 262.231C16.763 280.401 28.7227 296.956 45.2277 309.849C67.7068 327.409 94.7359 335.145 121.143 333.691C130.328 305.585 132.448 275.925 127.821 247.306Z"/>
    </mask>
    <path d="M162.511 222.506L162.334 217.343L164.665 227.201L162.511 222.506ZM127.821 247.306L122.721 248.131L122.312 245.603L124.076 243.748L127.821 247.306ZM106.044 196.771L101.451 199.136L110.053 193.513L106.044 196.771ZM115.238 221.194L120.249 219.942L120.87 222.429L119.266 224.427L115.238 221.194ZM9.59986 262.231L4.79411 264.126L1.49578 255.759L10.3847 257.126L9.59986 262.231ZM121.143 333.691L126.053 335.296L124.956 338.655L121.427 338.849L121.143 333.691ZM164.665 227.201C152.498 232.784 141.226 240.7 131.565 250.865L124.076 243.748C134.662 232.609 147.019 223.93 160.357 217.811L164.665 227.201ZM120.457 203.708C132.878 213.412 147.726 217.844 162.334 217.343L162.688 227.669C145.745 228.249 128.5 223.102 114.097 211.85L120.457 203.708ZM110.053 193.513C113.06 197.215 116.53 200.641 120.457 203.708L114.097 211.85C109.554 208.301 105.528 204.328 102.034 200.028L110.053 193.513ZM110.226 222.446C108.218 214.408 105.286 206.58 101.451 199.136L110.636 194.405C114.839 202.564 118.051 211.14 120.249 219.942L110.226 222.446ZM10.3847 257.126C47.3687 262.81 86.2133 249.103 111.209 217.96L119.266 224.427C91.8703 258.56 49.3018 273.56 8.81506 267.337L10.3847 257.126ZM42.0476 313.92C24.7967 300.444 12.286 283.13 4.79411 264.126L14.4056 260.337C21.2399 277.673 32.6487 293.468 48.4077 305.779L42.0476 313.92ZM121.427 338.849C93.8195 340.369 65.549 332.279 42.0476 313.92L48.4077 305.779C69.8647 322.54 95.6523 329.921 120.859 328.533L121.427 338.849ZM132.92 246.482C137.676 275.898 135.499 306.392 126.053 335.296L116.233 332.086C125.158 304.778 127.219 275.951 122.721 248.131L132.92 246.482Z" fill="white" mask="url(#path-8-inside-3_460_2743)"/>
  </svg>
