<svg width="16" height="16" viewBox="0 0 16 16" fill="none" xmlns="http://www.w3.org/2000/svg">
    <rect fill="#3178c6" width="16" height="16" rx="1.5625"/>
    <path clip-rule="evenodd" d="M9.904 12.732v1.565c.254.13.555.228.902.293.347.065.713.098 1.098.098.375 0 .731-.036 1.069-.108.337-.072.633-.19.887-.354.254-.165.456-.38.604-.645.148-.266.222-.594.222-.985 0-.284-.042-.532-.127-.745-.085-.213-.207-.403-.367-.57-.16-.166-.351-.315-.574-.447-.223-.132-.475-.257-.756-.374-.205-.085-.39-.167-.552-.247-.162-.08-.302-.161-.416-.244-.114-.083-.202-.171-.264-.264-.062-.093-.093-.198-.093-.315 0-.108.028-.205.083-.291.055-.086.134-.16.235-.222.101-.062.225-.11.372-.144.147-.034.31-.051.489-.051.13 0 .268.01.413.03.145.019.291.05.438.09.147.041.289.092.428.154.139.062.266.134.384.215v-1.462c-.238-.091-.498-.159-.78-.203-.282-.044-.606-.066-.97-.066-.372 0-.724.04-1.057.12-.333.08-.625.204-.878.374-.253.17-.452.385-.599.648-.147.262-.22.576-.22.941 0 .466.134.864.403 1.193.269.329.677.608 1.225.836.215.088.416.174.602.259.186.085.346.173.482.264.135.091.242.191.32.298.078.108.117.23.117.367 0 .101-.024.195-.073.281-.049.086-.123.161-.222.225-.099.064-.223.113-.372.149-.149.036-.322.054-.521.054-.339 0-.675-.06-1.007-.178-.332-.119-.64-.297-.924-.535zm-2.63-3.854h2.007v-1.284H4.406v1.284h1.997v5.716h1.59V8.878z" fill="#fff" fill-rule="evenodd"/>
</svg>