<svg width="16" height="16" viewBox="0 0 16 16" fill="none" xmlns="http://www.w3.org/2000/svg">
    <path d="M8 3.5C7.86111 3.5 7.72222 3.54167 7.61111 3.625L2.61111 7.625C2.36111 7.83333 2.33333 8.20833 2.54167 8.45833C2.75 8.70833 3.125 8.73611 3.375 8.52778L8 4.80556L12.625 8.52778C12.875 8.73611 13.25 8.70833 13.4583 8.45833C13.6667 8.20833 13.6389 7.83333 13.3889 7.625L8.38889 3.625C8.27778 3.54167 8.13889 3.5 8 3.5Z" fill="currentColor"/>
    <path d="M8 7.5C7.86111 7.5 7.72222 7.54167 7.61111 7.625L2.61111 11.625C2.36111 11.8333 2.33333 12.2083 2.54167 12.4583C2.75 12.7083 3.125 12.7361 3.375 12.5278L8 8.80556L12.625 12.5278C12.875 12.7361 13.25 12.7083 13.4583 12.4583C13.6667 12.2083 13.6389 11.8333 13.3889 11.625L8.38889 7.625C8.27778 7.54167 8.13889 7.5 8 7.5Z" fill="currentColor"/>
</svg>